<svg width="117" height="20" viewBox="0 0 117 20" fill="none" xmlns="http://www.w3.org/2000/svg">
<path d="M18.2314 0H32.2314V3.5H22.2314V9H31.2314V12H22.2314V20H18.2314V0Z" fill="white"/>
<path d="M48.2314 5V7.5H52.2314V3.5L48.7314 0H38.7314L35.2314 3.5V16.5L38.7314 20H48.7314L52.2314 16.5V12.5H48.2314V13V15L46.7314 16.5H40.7314L39.2314 15V5L40.7314 3.5H46.7314L48.2314 5Z" fill="white"/>
<path d="M55.2314 18.6831V16.7231L56.4781 15.4062H58.5944L59.812 16.7537V18.6524L58.5944 19.9999H56.4781L55.2314 18.6831Z" fill="#A1DB00"/>
<path d="M62.812 0H75.612L79.0406 3.42857V16.5714L75.612 20H62.812V0ZM73.6977 16.6857L75.1549 15.2286V4.77143L73.6977 3.31429H66.6977V16.6857H73.6977Z" fill="#A1DB00"/>
<path d="M82.4828 0H95.0256L97.8828 2.85714V8.45714L96.7399 9.62857L98.7685 11.6857V16.9143L95.6828 20H82.4828V0ZM93.0256 8.37143L94.0542 7.34286V4.25714L93.0542 3.25714H86.2828V8.37143H93.0256ZM93.7113 16.7429L94.9399 15.5143V12.7143L93.7113 11.4857H86.2828V16.7429H93.7113Z" fill="#A1DB00"/>
</svg>
